<svg width="378" height="166" viewBox="0 0 378 166" fill="none" xmlns="http://www.w3.org/2000/svg">
<g clip-path="url(#clip0_388_5528)">
<path d="M144.616 84.4255L142.98 84.693C145.13 89.0284 149.436 97.7293 149.456 97.8505L147.791 87.6703L144.616 84.4255Z" fill="#343434"/>
<path d="M149.637 98.0075L151.026 97.5625L148.086 88.5242L149.637 98.0075Z" fill="#1C1C1C"/>
<path d="M149.773 98.0785L153.8 103.486L154.168 102.215L155.59 102.073L151.142 97.6991L149.773 98.0785Z" fill="#454545"/>
<path d="M150.324 99.9146C150.363 100.034 153.961 104.198 155.036 105.355L149.697 98.1458L149.542 98.2315C149.787 98.7428 150.286 99.7954 150.324 99.9146Z" fill="#1F1F1F"/>
<path d="M137.327 92.1696L141.705 94.6978L139.135 86.074L137.327 92.1696Z" fill="#9C9C9C"/>
<path d="M136.678 89.0682L138.935 86.2845L137.254 91.9261L136.678 89.0682Z" fill="#4C4C4C"/>
<path d="M138.725 96.8944L141.584 94.7562L137.383 92.3128L138.725 96.8944Z" fill="#878686"/>
<path d="M142.916 96.1459L141.754 94.8525L139.639 97.0179L142.916 96.1459Z" fill="#595959"/>
<path d="M144.445 100.184L145.52 99.9499L142.984 96.237L139.722 97.0967L143.495 100.889L144.445 100.184Z" fill="#504E4E"/>
<path d="M138.814 96.9323L141.637 94.8394L139.54 96.9759L138.814 96.9323Z" fill="#949494"/>
<path d="M143.317 101.365L143.457 101.017L139.543 97.076L138.797 97.0139L143.317 101.365Z" fill="#959595"/>
<path d="M144.497 100.291L146.099 99.9482L147.979 106.193L146.732 105.836L146.109 106.61L144.984 106.193L144.194 107.155L144.497 100.291Z" fill="#5B5B5B"/>
<path d="M143.548 100.972L144.423 100.369L144.123 107.139L143.495 105.953L143.391 101.458L143.548 100.972Z" fill="#B9B9B9"/>
<path d="M141.812 94.7198L139.304 86.2529L154.938 105.481C156.593 107.604 159.92 111.86 159.997 111.901C160.075 111.941 157.559 111.088 156.292 110.657L141.812 94.7198Z" fill="#979797"/>
<path d="M134.658 74.1486L134.766 73.0643L131.391 72.82L134.658 74.1486Z" fill="#272727"/>
<path d="M131.442 72.7665L135.696 71.6801L134.754 72.991L131.442 72.7665Z" fill="#787878"/>
<path d="M131.594 71.8555L131.318 72.7419L135.229 71.6666L132.882 71.6449L131.594 71.8555Z" fill="#656464"/>
<path d="M130.415 72.2736L131.174 72.6903L128.185 74.6214L129.476 72.5925L130.415 72.2736Z" fill="#6A6A6A"/>
<path d="M130.535 72.1788L131.428 71.8524L131.207 72.5196L130.535 72.1788Z" fill="#504E4E"/>
<path d="M131.367 71.7572L130.219 70.9835L128.533 71.695L129.474 72.4875L131.367 71.7572Z" fill="#676767"/>
<path d="M128.452 71.8435L128.627 72.9116L129.359 72.5214L128.452 71.8435Z" fill="#928F8F"/>
<path d="M128.216 74.2559L128.265 73.2713L129.332 72.6311L128.216 74.2559Z" fill="#565656"/>
<path d="M129.906 76.1428L131.196 72.9123L128.28 74.7413L129.906 76.1428Z" fill="#292929"/>
<path d="M131.735 78.1421L131.356 72.886L129.998 76.2479L131.735 78.1421Z" fill="#575757"/>
<path d="M131.415 72.9663L133.346 74.4834L131.797 78.0567L131.415 72.9663Z" fill="#818181"/>
<path d="M133.419 74.5616L137.64 80.1657L131.867 78.2105L133.419 74.5616Z" fill="#8F8F8F"/>
<path d="M137.613 80.2753L126.347 79.7293L131.891 78.3568L137.613 80.2753Z" fill="#515151"/>
<path d="M126.263 79.8631L137.858 80.4575L132.895 93.0201L126.263 79.8631Z" fill="#414141"/>
<path d="M133.023 93.2338L139.081 85.8786L137.944 80.6289L133.023 93.2338Z" fill="#606060"/>
<path d="M138.073 80.6058L142.723 84.6075L149.719 98.8895L139.231 85.9467L138.073 80.6058Z" fill="#727272"/>
<path d="M123.989 92.5467L132.938 93.4045L126.071 79.9589L123.989 92.5467Z" fill="#717171"/>
<path d="M125.9 79.8546L111.983 84.73L123.8 92.3352L125.9 79.8546Z" fill="#6A6A6A"/>
<path d="M118.878 101.524L111.859 84.9627L123.804 92.5782L118.878 101.524Z" fill="#868686"/>
<path d="M111.635 85.0558C111.635 85.0558 107.159 96.5992 107.159 96.5976L118.665 101.609L111.635 85.0558Z" fill="#636363"/>
<path d="M111.47 84.8287L101.972 85.6145L107.03 96.3966L111.47 84.8287Z" fill="#868686"/>
<path d="M101.77 85.7435L96.7421 107.806L106.889 96.7074L101.77 85.7435Z" fill="#929292"/>
<path d="M96.5879 107.698L90.9015 96.9236L101.63 85.6705L96.5879 107.698Z" fill="#888888"/>
<path d="M101.443 85.5089L94.7273 84.3367L90.8968 96.7003L101.443 85.5089Z" fill="#8B8B8B"/>
<path d="M94.5195 84.4346L82.4391 93.2864L90.7163 96.695L94.5195 84.4346Z" fill="#949494"/>
<path d="M94.3852 84.2008L89.8887 83.4971L82.7517 92.8515L94.3852 84.2008Z" fill="#7C7C7C"/>
<path d="M90.3147 83.3636L100.195 79.6369L94.7229 84.1138L90.3147 83.3636Z" fill="#636262"/>
<path d="M100.709 79.4568L110.677 77.6346L101.932 85.3653L94.9824 84.1352L100.709 79.4568Z" fill="#727272"/>
<path d="M111.767 84.4923L111.171 77.5219L102.129 85.3971L111.767 84.4923Z" fill="#6B6B6B"/>
<path d="M111.451 77.4759L125.433 79.8585L111.98 84.4253L111.451 77.4759Z" fill="#535353"/>
<path d="M142.881 84.5271L138.395 80.6249L152.326 83.0673L142.881 84.5271Z" fill="#9D9D9D"/>
<path d="M130.34 78.6206L128.881 75.3962L129.958 76.2886L131.732 78.2353C131.842 78.2173 130.339 78.6207 130.34 78.6206Z" fill="#252323"/>
<path d="M180.814 59.8917C180.936 60.0084 181.737 54.8314 181.737 54.8314L169.704 53.2989L168.693 55.4346C168.693 55.4346 180.693 59.775 180.814 59.8917Z" fill="#313131"/>
<path d="M168.558 55.3921L160.517 55.815L169.573 53.314L168.558 55.3921Z" fill="#3F3F3F"/>
<path d="M166.532 59.2769L168.467 55.5186L160.413 55.9595L152.951 60.5103L166.532 59.2769Z" fill="#5C5C5C"/>
<path d="M153.005 60.645L160.188 64.7755L166.385 59.4447L153.005 60.645Z" fill="#747474"/>
<path d="M168.593 55.6094L166.728 59.4042L180.664 59.9454L168.593 55.6094Z" fill="#3F3F3F"/>
<path d="M180.809 60.0494L166.844 59.5288L182.144 69.0891L180.809 60.0494Z" fill="#6C6C6C"/>
<path d="M172.586 69.8873L167.009 59.8523L181.908 69.1115L172.586 69.8873Z" fill="#404040"/>
<path d="M166.607 59.4402L160.394 64.8066L172.483 69.9363L166.607 59.4402Z" fill="#666666"/>
<path d="M172.454 70.0523L160.373 64.9886L166.962 78.6628L172.454 70.0523Z" fill="#949494"/>
<path d="M166.853 78.6807L160.258 65.0516L159.116 77.7472L166.853 78.6807Z" fill="#626262"/>
<path d="M146.277 71.5588L160.119 64.9255L158.94 77.744L146.277 71.5588Z" fill="#919191"/>
<path d="M158.736 77.8522L152.856 82.905L146.267 71.7318L158.736 77.8522Z" fill="#808080"/>
<path d="M146.116 71.7822L137.918 80.3317L152.71 82.9734L146.116 71.7822Z" fill="#909090"/>
<path d="M137.889 80.0874L137.463 76.1849L145.957 71.7274L137.889 80.0874Z" fill="#AAA6A6"/>
<path d="M137.292 76.1774L133.473 74.4576L137.719 80.1125L137.292 76.1774Z" fill="#3F3F3F"/>
<path d="M133.414 74.3519L131.445 72.8713L134.57 74.1629L136.927 75.8957L133.414 74.3519Z" fill="#4A4A4A"/>
<path d="M159.962 64.8122L152.787 60.6804L146.281 71.369L159.962 64.8122Z" fill="#838383"/>
<g style="mix-blend-mode:color">
<path d="M144.616 84.4255L142.98 84.693C145.13 89.0284 149.436 97.7293 149.456 97.8505L147.791 87.6703L144.616 84.4255Z" fill="#002A5B"/>
<path d="M149.637 98.0075L151.026 97.5625L148.086 88.5242L149.637 98.0075Z" fill="#002A5B"/>
<path d="M149.773 98.0785L153.8 103.486L154.168 102.215L155.59 102.073L151.142 97.6991L149.773 98.0785Z" fill="#002A5B"/>
<path d="M150.324 99.9146C150.363 100.034 153.961 104.198 155.036 105.355L149.697 98.1458L149.542 98.2315C149.787 98.7428 150.286 99.7954 150.324 99.9146Z" fill="#002A5B"/>
<path d="M137.327 92.1696L141.705 94.6978L139.135 86.074L137.327 92.1696Z" fill="#002A5B"/>
<path d="M136.678 89.0682L138.935 86.2845L137.254 91.9261L136.678 89.0682Z" fill="#002A5B"/>
<path d="M138.725 96.8944L141.584 94.7562L137.383 92.3128L138.725 96.8944Z" fill="#002A5B"/>
<path d="M142.916 96.1459L141.754 94.8525L139.639 97.0179L142.916 96.1459Z" fill="#002A5B"/>
<path d="M144.445 100.184L145.52 99.9499L142.984 96.237L139.722 97.0967L143.495 100.889L144.445 100.184Z" fill="#002A5B"/>
<path d="M138.814 96.9323L141.637 94.8394L139.54 96.9759L138.814 96.9323Z" fill="#002A5B"/>
<path d="M143.317 101.365L143.457 101.017L139.543 97.076L138.797 97.0139L143.317 101.365Z" fill="#002A5B"/>
<path d="M144.497 100.291L146.099 99.9482L147.979 106.193L146.732 105.836L146.109 106.61L144.984 106.193L144.194 107.155L144.497 100.291Z" fill="#002A5B"/>
<path d="M143.548 100.972L144.423 100.369L144.123 107.139L143.495 105.953L143.391 101.458L143.548 100.972Z" fill="#002A5B"/>
<path d="M141.812 94.7198L139.304 86.2529L154.938 105.481C156.593 107.604 159.92 111.86 159.997 111.901C160.075 111.941 157.559 111.088 156.292 110.657L141.812 94.7198Z" fill="#002A5B"/>
<path d="M134.658 74.1486L134.766 73.0643L131.391 72.82L134.658 74.1486Z" fill="#002A5B"/>
<path d="M131.442 72.7665L135.696 71.6801L134.754 72.991L131.442 72.7665Z" fill="#002A5B"/>
<path d="M131.594 71.8555L131.318 72.7419L135.229 71.6666L132.882 71.6449L131.594 71.8555Z" fill="#002A5B"/>
<path d="M130.415 72.2736L131.174 72.6903L128.185 74.6214L129.476 72.5925L130.415 72.2736Z" fill="#002A5B"/>
<path d="M130.535 72.1788L131.428 71.8524L131.207 72.5196L130.535 72.1788Z" fill="#002A5B"/>
<path d="M131.367 71.7572L130.219 70.9835L128.533 71.695L129.474 72.4875L131.367 71.7572Z" fill="#002A5B"/>
<path d="M128.452 71.8435L128.627 72.9116L129.359 72.5214L128.452 71.8435Z" fill="#002A5B"/>
<path d="M128.216 74.2559L128.265 73.2713L129.332 72.6311L128.216 74.2559Z" fill="#002A5B"/>
<path d="M129.906 76.1428L131.196 72.9123L128.28 74.7413L129.906 76.1428Z" fill="#002A5B"/>
<path d="M131.735 78.1421L131.356 72.886L129.998 76.2479L131.735 78.1421Z" fill="#002A5B"/>
<path d="M131.415 72.9663L133.346 74.4834L131.797 78.0567L131.415 72.9663Z" fill="#002A5B"/>
<path d="M133.419 74.5616L137.64 80.1657L131.867 78.2105L133.419 74.5616Z" fill="#002A5B"/>
<path d="M137.613 80.2753L126.347 79.7293L131.891 78.3568L137.613 80.2753Z" fill="#002A5B"/>
<path d="M126.263 79.8631L137.858 80.4575L132.895 93.0201L126.263 79.8631Z" fill="#002A5B"/>
<path d="M133.023 93.2338L139.081 85.8786L137.944 80.6289L133.023 93.2338Z" fill="#002A5B"/>
<path d="M138.073 80.6058L142.723 84.6075L149.719 98.8895L139.231 85.9467L138.073 80.6058Z" fill="#002A5B"/>
<path d="M123.989 92.5467L132.938 93.4045L126.071 79.9589L123.989 92.5467Z" fill="#002A5B"/>
<path d="M125.9 79.8546L111.983 84.73L123.8 92.3352L125.9 79.8546Z" fill="#002A5B"/>
<path d="M118.878 101.524L111.859 84.9627L123.804 92.5782L118.878 101.524Z" fill="#002A5B"/>
<path d="M111.635 85.0558C111.635 85.0558 107.159 96.5992 107.159 96.5976L118.665 101.609L111.635 85.0558Z" fill="#002A5B"/>
<path d="M111.47 84.8287L101.972 85.6145L107.03 96.3966L111.47 84.8287Z" fill="#002A5B"/>
<path d="M101.77 85.7435L96.7421 107.806L106.889 96.7074L101.77 85.7435Z" fill="#002A5B"/>
<path d="M96.5879 107.698L90.9015 96.9236L101.63 85.6705L96.5879 107.698Z" fill="#002A5B"/>
<path d="M101.443 85.5089L94.7273 84.3367L90.8968 96.7003L101.443 85.5089Z" fill="#002A5B"/>
<path d="M94.5195 84.4346L82.4391 93.2864L90.7163 96.695L94.5195 84.4346Z" fill="#002A5B"/>
<path d="M94.3852 84.2008L89.8887 83.4971L82.7517 92.8515L94.3852 84.2008Z" fill="#002A5B"/>
<path d="M90.3147 83.3636L100.195 79.6369L94.7229 84.1138L90.3147 83.3636Z" fill="#002A5B"/>
<path d="M100.709 79.4568L110.677 77.6346L101.932 85.3653L94.9824 84.1352L100.709 79.4568Z" fill="#002A5B"/>
<path d="M111.767 84.4923L111.171 77.5219L102.129 85.3971L111.767 84.4923Z" fill="#002A5B"/>
<path d="M111.451 77.4759L125.433 79.8585L111.98 84.4253L111.451 77.4759Z" fill="#002A5B"/>
<path d="M142.881 84.5271L138.395 80.6249L152.326 83.0673L142.881 84.5271Z" fill="#002A5B"/>
<path d="M130.34 78.6206L128.881 75.3962L129.958 76.2886L131.732 78.2353C131.842 78.2173 130.339 78.6207 130.34 78.6206Z" fill="#002A5B"/>
<path d="M180.814 59.8917C180.936 60.0084 181.737 54.8314 181.737 54.8314L169.704 53.2989L168.693 55.4346C168.693 55.4346 180.693 59.775 180.814 59.8917Z" fill="#002A5B"/>
<path d="M168.558 55.3921L160.517 55.815L169.573 53.314L168.558 55.3921Z" fill="#002A5B"/>
<path d="M166.532 59.2769L168.467 55.5186L160.413 55.9595L152.951 60.5103L166.532 59.2769Z" fill="#002A5B"/>
<path d="M153.005 60.645L160.188 64.7755L166.385 59.4447L153.005 60.645Z" fill="#002A5B"/>
<path d="M168.593 55.6094L166.728 59.4042L180.664 59.9454L168.593 55.6094Z" fill="#002A5B"/>
<path d="M180.809 60.0494L166.844 59.5288L182.144 69.0891L180.809 60.0494Z" fill="#002A5B"/>
<path d="M172.586 69.8873L167.009 59.8523L181.908 69.1115L172.586 69.8873Z" fill="#002A5B"/>
<path d="M166.607 59.4402L160.394 64.8066L172.483 69.9363L166.607 59.4402Z" fill="#002A5B"/>
<path d="M172.454 70.0523L160.373 64.9886L166.962 78.6628L172.454 70.0523Z" fill="#002A5B"/>
<path d="M166.853 78.6807L160.258 65.0516L159.116 77.7472L166.853 78.6807Z" fill="#002A5B"/>
<path d="M146.277 71.5588L160.119 64.9255L158.94 77.744L146.277 71.5588Z" fill="#002A5B"/>
<path d="M158.736 77.8522L152.856 82.905L146.267 71.7318L158.736 77.8522Z" fill="#002A5B"/>
<path d="M146.116 71.7822L137.918 80.3317L152.71 82.9734L146.116 71.7822Z" fill="#002A5B"/>
<path d="M137.889 80.0874L137.463 76.1849L145.957 71.7274L137.889 80.0874Z" fill="#002A5B"/>
<path d="M137.292 76.1774L133.473 74.4576L137.719 80.1125L137.292 76.1774Z" fill="#002A5B"/>
<path d="M133.414 74.3519L131.445 72.8713L134.57 74.1629L136.927 75.8957L133.414 74.3519Z" fill="#002A5B"/>
<path d="M159.962 64.8122L152.787 60.6804L146.281 71.369L159.962 64.8122Z" fill="#002A5B"/>
</g>
<g filter="url(#filter0_f_388_5528)">
<path d="M156.739 48.3603L168.258 42.6009L174.715 40.508L180.823 115.031L156.739 48.3603Z" fill="url(#paint0_linear_388_5528)"/>
</g>
<path d="M251.221 139.797L302.884 122.294L302.255 22.7027L251.221 139.797Z" fill="#A7A7A7"/>
<path d="M304.219 122.136L320.629 118.97L303.566 24.5484L304.219 122.136Z" fill="#D6D3D3"/>
<path d="M169.916 38.7183L193.809 2.64511L296.646 20.6981L169.916 38.7183Z" fill="#999999"/>
<path d="M181.903 132.864L211.9 34.0057L168.883 39.9874L181.903 132.864Z" fill="#737373"/>
<path d="M181.314 138.03L251.113 88.4466L195.242 92.895L181.314 138.03Z" fill="#565656"/>
<path d="M251.515 89.8119L248.885 140.198L182.81 139.013C182.184 138.651 251.515 89.8119 251.515 89.8119Z" fill="#919191"/>
<path d="M303.796 123.133L282.519 158.282L321.038 120.139L303.796 123.133Z" fill="#DDDADA"/>
<path d="M213.064 33.8677L298.974 21.4845L195.69 91.0588L213.064 33.8677Z" fill="#C8C8C8"/>
<path d="M251.615 87.2287L299.216 22.9652L196.862 91.5039L251.615 87.2287Z" fill="#A9A9A9"/>
<path d="M252.843 87.6957L250.057 139.331L300.525 23.454L252.843 87.6957Z" fill="#E0E0E0"/>
<path d="M280.937 158.004L301.841 123.772L249.543 141.621L209.764 141.018L280.937 158.004Z" fill="#6C6A6A"/>
<g style="mix-blend-mode:color" opacity="0.2">
<path d="M251.221 139.797L302.884 122.294L302.255 22.7027L251.221 139.797Z" fill="#FF00B8"/>
<path d="M304.219 122.136L320.629 118.97L303.566 24.5484L304.219 122.136Z" fill="#FF00B8"/>
<path d="M169.916 38.7183L193.809 2.64511L296.646 20.6981L169.916 38.7183Z" fill="#FF00B8"/>
<path d="M181.903 132.864L211.9 34.0057L168.883 39.9874L181.903 132.864Z" fill="#FF00B8"/>
<path d="M181.314 138.03L251.113 88.4466L195.242 92.895L181.314 138.03Z" fill="#FF00B8"/>
<path d="M251.515 89.8119L248.885 140.198L182.81 139.013C182.184 138.651 251.515 89.8119 251.515 89.8119Z" fill="#FF00B8"/>
<path d="M303.796 123.133L282.519 158.282L321.038 120.139L303.796 123.133Z" fill="#FF00B8"/>
<path d="M213.064 33.8677L298.974 21.4845L195.69 91.0588L213.064 33.8677Z" fill="#FF00B8"/>
<path d="M251.615 87.2287L299.216 22.9652L196.862 91.5039L251.615 87.2287Z" fill="#FF00B8"/>
<path d="M252.843 87.6957L250.057 139.331L300.525 23.454L252.843 87.6957Z" fill="#FF00B8"/>
<path d="M280.937 158.004L301.841 123.772L249.543 141.621L209.764 141.018L280.937 158.004Z" fill="#FF00B8"/>
</g>
<g style="mix-blend-mode:multiply" opacity="0.8">
<path d="M251.221 139.797L302.884 122.294L302.255 22.7027L251.221 139.797Z" fill="#FF00B8"/>
<path d="M304.219 122.136L320.629 118.97L303.566 24.5484L304.219 122.136Z" fill="#FF00B8"/>
<path d="M169.916 38.7183L193.809 2.64511L296.646 20.6981L169.916 38.7183Z" fill="#FF00B8"/>
<path d="M181.903 132.864L211.9 34.0057L168.883 39.9874L181.903 132.864Z" fill="#FF00B8"/>
<path d="M181.314 138.03L251.113 88.4466L195.242 92.895L181.314 138.03Z" fill="#FF00B8"/>
<path d="M251.515 89.8119L248.885 140.198L182.81 139.013C182.184 138.651 251.515 89.8119 251.515 89.8119Z" fill="#FF00B8"/>
<path d="M303.796 123.133L282.519 158.282L321.038 120.139L303.796 123.133Z" fill="#FF00B8"/>
<path d="M213.064 33.8677L298.974 21.4845L195.69 91.0588L213.064 33.8677Z" fill="#FF00B8"/>
<path d="M251.615 87.2287L299.216 22.9652L196.862 91.5039L251.615 87.2287Z" fill="#FF00B8"/>
<path d="M252.843 87.6957L250.057 139.331L300.525 23.454L252.843 87.6957Z" fill="#FF00B8"/>
<path d="M280.937 158.004L301.841 123.772L249.543 141.621L209.764 141.018L280.937 158.004Z" fill="#FF00B8"/>
</g>
</g>
<defs>
<filter id="filter0_f_388_5528" x="148.954" y="32.7227" width="39.6543" height="90.093" filterUnits="userSpaceOnUse" color-interpolation-filters="sRGB">
<feFlood flood-opacity="0" result="BackgroundImageFix"/>
<feBlend mode="normal" in="SourceGraphic" in2="BackgroundImageFix" result="shape"/>
<feGaussianBlur stdDeviation="3.89262" result="effect1_foregroundBlur_388_5528"/>
</filter>
<linearGradient id="paint0_linear_388_5528" x1="185.885" y1="50.805" x2="124.974" y2="70.8759" gradientUnits="userSpaceOnUse">
<stop/>
<stop offset="1" stop-opacity="0"/>
</linearGradient>
<clipPath id="clip0_388_5528">
<rect width="378" height="166" fill="white"/>
</clipPath>
</defs>
</svg>
