<svg width="436" height="356" viewBox="0 0 436 356" fill="none" xmlns="http://www.w3.org/2000/svg">
<g clip-path="url(#clip0_281_1800)">
<path d="M116.197 151.82L113.255 152.301C117.122 160.097 124.865 175.744 124.9 175.962L121.906 157.655L116.197 151.82Z" fill="#343434"/>
<path d="M125.226 176.244L127.724 175.444L122.437 159.191L125.226 176.244Z" fill="#1C1C1C"/>
<path d="M125.471 176.372L132.712 186.097L133.374 183.81L135.932 183.556L127.933 175.69L125.471 176.372Z" fill="#454545"/>
<path d="M126.463 179.674C126.533 179.888 133.002 187.377 134.935 189.456L125.335 176.493L125.056 176.647C125.496 177.567 126.393 179.46 126.463 179.674Z" fill="#1F1F1F"/>
<path d="M103.09 165.746L110.963 170.293L106.342 154.785L103.09 165.746Z" fill="#9C9C9C"/>
<path d="M101.923 160.169L105.981 155.163L102.959 165.308L101.923 160.169Z" fill="#4C4C4C"/>
<path d="M105.603 174.243L110.746 170.398L103.191 166.004L105.603 174.243Z" fill="#878686"/>
<path d="M113.139 172.897L111.05 170.571L107.248 174.465L113.139 172.897Z" fill="#595959"/>
<path d="M115.89 180.158L117.822 179.737L113.263 173.061L107.396 174.607L114.181 181.426L115.89 180.158Z" fill="#504E4E"/>
<path d="M105.764 174.311L110.841 170.547L107.069 174.389L105.764 174.311Z" fill="#949494"/>
<path d="M113.862 182.282L114.114 181.657L107.076 174.569L105.733 174.458L113.862 182.282Z" fill="#959595"/>
<path d="M115.984 180.351L118.863 179.734L122.245 190.964L120.002 190.323L118.882 191.714L116.859 190.964L115.439 192.695L115.984 180.351Z" fill="#5B5B5B"/>
<path d="M114.277 181.576L115.85 180.491L115.31 192.666L114.181 190.532L113.994 182.45L114.277 181.576Z" fill="#B9B9B9"/>
<path d="M111.156 170.332L106.645 155.106L134.76 189.684C137.735 193.502 143.719 201.156 143.858 201.228C143.996 201.301 139.473 199.767 137.193 198.991L111.156 170.332Z" fill="#979797"/>
<path d="M98.29 133.34L98.4844 131.39L92.4151 130.95L98.29 133.34Z" fill="#272727"/>
<path d="M92.5073 130.854L100.157 128.901L98.4627 131.258L92.5073 130.854Z" fill="#787878"/>
<path d="M92.7802 129.216L92.2845 130.81L99.3164 128.876L95.0956 128.837L92.7802 129.216Z" fill="#656464"/>
<path d="M90.6606 129.968L92.0258 130.717L86.6504 134.19L88.9713 130.541L90.6606 129.968Z" fill="#6A6A6A"/>
<path d="M90.8759 129.797L92.4819 129.21L92.0837 130.41L90.8759 129.797Z" fill="#504E4E"/>
<path d="M92.3724 129.039L90.3078 127.648L87.2752 128.927L88.9671 130.353L92.3724 129.039Z" fill="#676767"/>
<path d="M87.1302 129.194L87.4444 131.115L88.7614 130.413L87.1302 129.194Z" fill="#928F8F"/>
<path d="M86.7049 133.532L86.7935 131.762L88.7124 130.611L86.7049 133.532Z" fill="#565656"/>
<path d="M89.7452 136.926L92.064 131.116L86.8206 134.405L89.7452 136.926Z" fill="#292929"/>
<path d="M93.0346 140.521L92.3532 131.069L89.911 137.115L93.0346 140.521Z" fill="#575757"/>
<path d="M92.4579 131.213L95.9298 133.942L93.1446 140.367L92.4579 131.213Z" fill="#818181"/>
<path d="M96.0611 134.082L103.653 144.16L93.271 140.644L96.0611 134.082Z" fill="#8F8F8F"/>
<path d="M103.604 144.357L83.344 143.375L93.3143 140.907L103.604 144.357Z" fill="#515151"/>
<path d="M83.1941 143.616L104.045 144.685L95.1201 167.276L83.1941 143.616Z" fill="#414141"/>
<path d="M95.3504 167.66L106.243 154.433L104.199 144.993L95.3504 167.66Z" fill="#606060"/>
<path d="M104.431 144.951L112.794 152.147L125.375 177.83L106.514 154.556L104.431 144.951Z" fill="#727272"/>
<path d="M79.1042 166.424L95.197 167.967L82.849 143.788L79.1042 166.424Z" fill="#717171"/>
<path d="M82.5411 143.601L57.5145 152.368L78.7648 166.044L82.5411 143.601Z" fill="#6A6A6A"/>
<path d="M69.914 182.568L57.291 152.786L78.7709 166.481L69.914 182.568Z" fill="#868686"/>
<path d="M56.8888 152.954C56.8888 152.954 48.8391 173.712 48.8387 173.709L69.5296 182.722L56.8888 152.954Z" fill="#636363"/>
<path d="M56.5922 152.545L39.5124 153.958L48.6072 173.348L56.5922 152.545Z" fill="#868686"/>
<path d="M39.1479 154.19L30.1067 193.865L48.3536 173.907L39.1479 154.19Z" fill="#929292"/>
<path d="M29.8297 193.67L19.6041 174.295L38.8964 154.059L29.8297 193.67Z" fill="#888888"/>
<path d="M38.5612 153.769L26.4841 151.66L19.5958 173.894L38.5612 153.769Z" fill="#8B8B8B"/>
<path d="M26.1103 151.837L4.38635 167.755L19.271 173.884L26.1103 151.837Z" fill="#949494"/>
<path d="M25.8686 151.416L17.7826 150.151L4.94827 166.973L25.8686 151.416Z" fill="#7C7C7C"/>
<path d="M18.5487 149.911L36.3163 143.209L26.4758 151.26L18.5487 149.911Z" fill="#636262"/>
<path d="M37.2413 142.885L55.1665 139.608L39.4391 153.51L26.9424 151.298L37.2413 142.885Z" fill="#727272"/>
<path d="M57.1258 151.94L56.0534 139.406L39.7934 153.567L57.1258 151.94Z" fill="#6B6B6B"/>
<path d="M56.5573 139.323L81.7004 143.608L57.5085 151.82L56.5573 139.323Z" fill="#535353"/>
<path d="M113.078 152.003L105.011 144.986L130.063 149.378L113.078 152.003Z" fill="#9D9D9D"/>
<path d="M90.5246 141.381L87.902 135.583L89.8387 137.188L93.0287 140.688C93.226 140.656 90.5235 141.382 90.5246 141.381Z" fill="#252323"/>
<path d="M181.291 107.701C181.51 107.911 182.951 98.6011 182.951 98.6011L161.312 95.8452L159.494 99.6857C159.494 99.6857 181.073 107.491 181.291 107.701Z" fill="#313131"/>
<path d="M159.252 99.6103L144.791 100.371L161.076 95.8732L159.252 99.6103Z" fill="#3F3F3F"/>
<path d="M155.609 106.596L159.089 99.8377L144.605 100.631L131.186 108.814L155.609 106.596Z" fill="#5C5C5C"/>
<path d="M131.282 109.056L144.2 116.484L155.343 106.898L131.282 109.056Z" fill="#747474"/>
<path d="M159.316 100.001L155.962 106.825L181.022 107.798L159.316 100.001Z" fill="#3F3F3F"/>
<path d="M181.282 107.985L156.17 107.049L183.683 124.241L181.282 107.985Z" fill="#6C6C6C"/>
<path d="M166.495 125.676L156.466 107.631L183.259 124.281L166.495 125.676Z" fill="#404040"/>
<path d="M155.743 106.89L144.57 116.54L166.309 125.765L155.743 106.89Z" fill="#666666"/>
<path d="M166.257 125.973L144.533 116.867L156.382 141.457L166.257 125.973Z" fill="#949494"/>
<path d="M156.186 141.49L144.326 116.981L142.272 139.811L156.186 141.49Z" fill="#626262"/>
<path d="M119.184 128.682L144.077 116.754L141.956 139.805L119.184 128.682Z" fill="#919191"/>
<path d="M141.589 140L131.015 149.086L119.166 128.993L141.589 140Z" fill="#808080"/>
<path d="M118.895 129.084L104.153 144.458L130.753 149.209L118.895 129.084Z" fill="#909090"/>
<path d="M104.1 144.019L103.334 137.001L118.609 128.986L104.1 144.019Z" fill="#AAA6A6"/>
<path d="M103.028 136.988L96.159 133.895L103.794 144.064L103.028 136.988Z" fill="#3F3F3F"/>
<path d="M96.0537 133.705L92.5114 131.043L98.1323 133.365L102.37 136.481L96.0537 133.705Z" fill="#4A4A4A"/>
<path d="M143.794 116.55L130.891 109.12L119.192 128.341L143.794 116.55Z" fill="#838383"/>
<g style="mix-blend-mode:color">
<path d="M116.197 151.82L113.255 152.301C117.122 160.097 124.865 175.744 124.9 175.962L121.906 157.655L116.197 151.82Z" fill="#002A5B"/>
<path d="M125.226 176.244L127.724 175.444L122.437 159.191L125.226 176.244Z" fill="#002A5B"/>
<path d="M125.471 176.372L132.712 186.097L133.373 183.81L135.932 183.556L127.933 175.69L125.471 176.372Z" fill="#002A5B"/>
<path d="M126.463 179.674C126.532 179.888 133.002 187.377 134.935 189.456L125.334 176.493L125.056 176.647C125.496 177.567 126.393 179.46 126.463 179.674Z" fill="#002A5B"/>
<path d="M103.09 165.746L110.963 170.293L106.342 154.785L103.09 165.746Z" fill="#002A5B"/>
<path d="M101.923 160.169L105.981 155.163L102.959 165.308L101.923 160.169Z" fill="#002A5B"/>
<path d="M105.603 174.243L110.746 170.398L103.191 166.004L105.603 174.243Z" fill="#002A5B"/>
<path d="M113.139 172.897L111.05 170.571L107.248 174.465L113.139 172.897Z" fill="#002A5B"/>
<path d="M115.89 180.158L117.822 179.737L113.262 173.061L107.396 174.607L114.181 181.426L115.89 180.158Z" fill="#002A5B"/>
<path d="M105.763 174.311L110.841 170.547L107.068 174.389L105.763 174.311Z" fill="#002A5B"/>
<path d="M113.862 182.282L114.114 181.657L107.076 174.569L105.733 174.458L113.862 182.282Z" fill="#002A5B"/>
<path d="M115.984 180.351L118.863 179.734L122.245 190.964L120.002 190.323L118.882 191.714L116.859 190.964L115.439 192.695L115.984 180.351Z" fill="#002A5B"/>
<path d="M114.277 181.576L115.85 180.491L115.31 192.666L114.181 190.532L113.994 182.45L114.277 181.576Z" fill="#002A5B"/>
<path d="M111.156 170.332L106.645 155.106L134.76 189.684C137.735 193.502 143.719 201.156 143.858 201.228C143.996 201.301 139.473 199.767 137.193 198.991L111.156 170.332Z" fill="#002A5B"/>
<path d="M98.29 133.34L98.4843 131.39L92.4151 130.95L98.29 133.34Z" fill="#002A5B"/>
<path d="M92.5073 130.854L100.157 128.901L98.4627 131.258L92.5073 130.854Z" fill="#002A5B"/>
<path d="M92.7801 129.216L92.2844 130.81L99.3164 128.876L95.0955 128.837L92.7801 129.216Z" fill="#002A5B"/>
<path d="M90.6605 129.968L92.0258 130.717L86.6503 134.19L88.9713 130.541L90.6605 129.968Z" fill="#002A5B"/>
<path d="M90.8758 129.797L92.4818 129.21L92.0837 130.41L90.8758 129.797Z" fill="#002A5B"/>
<path d="M92.3723 129.039L90.3077 127.648L87.2751 128.927L88.9671 130.353L92.3723 129.039Z" fill="#002A5B"/>
<path d="M87.1302 129.194L87.4443 131.115L88.7613 130.413L87.1302 129.194Z" fill="#002A5B"/>
<path d="M86.7048 133.532L86.7935 131.762L88.7124 130.611L86.7048 133.532Z" fill="#002A5B"/>
<path d="M89.7452 136.926L92.0639 131.116L86.8205 134.405L89.7452 136.926Z" fill="#002A5B"/>
<path d="M93.0345 140.521L92.3531 131.069L89.9109 137.115L93.0345 140.521Z" fill="#002A5B"/>
<path d="M92.4578 131.213L95.9297 133.942L93.1445 140.367L92.4578 131.213Z" fill="#002A5B"/>
<path d="M96.061 134.082L103.653 144.16L93.271 140.644L96.061 134.082Z" fill="#002A5B"/>
<path d="M103.604 144.357L83.3439 143.375L93.3142 140.907L103.604 144.357Z" fill="#002A5B"/>
<path d="M83.194 143.616L104.044 144.685L95.1201 167.276L83.194 143.616Z" fill="#002A5B"/>
<path d="M95.3504 167.66L106.243 154.433L104.199 144.993L95.3504 167.66Z" fill="#002A5B"/>
<path d="M104.431 144.951L112.794 152.147L125.375 177.83L106.514 154.556L104.431 144.951Z" fill="#002A5B"/>
<path d="M79.1041 166.424L95.1969 167.967L82.8489 143.788L79.1041 166.424Z" fill="#002A5B"/>
<path d="M82.541 143.601L57.5144 152.368L78.7647 166.044L82.541 143.601Z" fill="#002A5B"/>
<path d="M69.914 182.568L57.291 152.786L78.7709 166.481L69.914 182.568Z" fill="#002A5B"/>
<path d="M56.8888 152.954C56.8888 152.954 48.839 173.712 48.8386 173.709L69.5296 182.722L56.8888 152.954Z" fill="#002A5B"/>
<path d="M56.5921 152.545L39.5124 153.958L48.6071 173.348L56.5921 152.545Z" fill="#002A5B"/>
<path d="M39.1478 154.19L30.1066 193.865L48.3536 173.907L39.1478 154.19Z" fill="#002A5B"/>
<path d="M29.8297 193.67L19.604 174.295L38.8963 154.059L29.8297 193.67Z" fill="#002A5B"/>
<path d="M38.5612 153.769L26.4841 151.66L19.5958 173.894L38.5612 153.769Z" fill="#002A5B"/>
<path d="M26.1102 151.837L4.38629 167.755L19.2709 173.884L26.1102 151.837Z" fill="#002A5B"/>
<path d="M25.8686 151.416L17.7825 150.151L4.9482 166.973L25.8686 151.416Z" fill="#002A5B"/>
<path d="M18.5486 149.911L36.3162 143.209L26.4757 151.26L18.5486 149.911Z" fill="#002A5B"/>
<path d="M37.2412 142.885L55.1664 139.608L39.439 153.51L26.9424 151.298L37.2412 142.885Z" fill="#002A5B"/>
<path d="M57.1257 151.94L56.0534 139.406L39.7934 153.567L57.1257 151.94Z" fill="#002A5B"/>
<path d="M56.5573 139.323L81.7003 143.608L57.5084 151.82L56.5573 139.323Z" fill="#002A5B"/>
<path d="M113.078 152.003L105.011 144.986L130.063 149.378L113.078 152.003Z" fill="#002A5B"/>
<path d="M90.5245 141.381L87.9019 135.583L89.8386 137.188L93.0286 140.688C93.2259 140.656 90.5234 141.382 90.5245 141.381Z" fill="#002A5B"/>
<path d="M181.291 107.701C181.51 107.911 182.951 98.6011 182.951 98.6011L161.312 95.8452L159.494 99.6857C159.494 99.6857 181.073 107.491 181.291 107.701Z" fill="#002A5B"/>
<path d="M159.252 99.6103L144.791 100.371L161.076 95.8732L159.252 99.6103Z" fill="#002A5B"/>
<path d="M155.609 106.596L159.089 99.8377L144.604 100.631L131.186 108.814L155.609 106.596Z" fill="#002A5B"/>
<path d="M131.282 109.056L144.2 116.484L155.343 106.898L131.282 109.056Z" fill="#002A5B"/>
<path d="M159.316 100.001L155.962 106.825L181.022 107.798L159.316 100.001Z" fill="#002A5B"/>
<path d="M181.282 107.985L156.17 107.049L183.683 124.241L181.282 107.985Z" fill="#002A5B"/>
<path d="M166.495 125.676L156.466 107.631L183.259 124.281L166.495 125.676Z" fill="#002A5B"/>
<path d="M155.743 106.89L144.57 116.54L166.309 125.765L155.743 106.89Z" fill="#002A5B"/>
<path d="M166.257 125.973L144.533 116.867L156.382 141.457L166.257 125.973Z" fill="#002A5B"/>
<path d="M156.186 141.49L144.326 116.981L142.272 139.811L156.186 141.49Z" fill="#002A5B"/>
<path d="M119.184 128.682L144.077 116.754L141.956 139.805L119.184 128.682Z" fill="#002A5B"/>
<path d="M141.589 140L131.015 149.086L119.165 128.993L141.589 140Z" fill="#002A5B"/>
<path d="M118.895 129.084L104.153 144.458L130.753 149.209L118.895 129.084Z" fill="#002A5B"/>
<path d="M104.1 144.019L103.334 137.001L118.609 128.986L104.1 144.019Z" fill="#002A5B"/>
<path d="M103.028 136.988L96.1589 133.895L103.794 144.064L103.028 136.988Z" fill="#002A5B"/>
<path d="M96.0536 133.705L92.5114 131.043L98.1322 133.365L102.37 136.481L96.0536 133.705Z" fill="#002A5B"/>
<path d="M143.794 116.55L130.891 109.12L119.192 128.341L143.794 116.55Z" fill="#002A5B"/>
</g>
<g filter="url(#filter0_f_281_1800)">
<path d="M137.997 86.9652L158.712 76.6081L170.324 72.8445L181.307 206.856L137.997 86.9652Z" fill="url(#paint0_linear_281_1800)"/>
</g>
<path d="M307.903 251.393L400.807 219.918L399.676 40.8257L307.903 251.393Z" fill="#A7A7A7"/>
<path d="M403.207 219.634L432.716 213.94L402.033 44.1447L403.207 219.634Z" fill="#D6D3D3"/>
<path d="M161.694 69.6262L204.659 4.75662L389.589 37.2209L161.694 69.6262Z" fill="#999999"/>
<path d="M183.251 238.925L237.193 61.1516L159.836 71.9084L183.251 238.925Z" fill="#737373"/>
<path d="M182.191 248.216L307.708 159.051L207.237 167.051L182.191 248.216Z" fill="#565656"/>
<path d="M308.432 161.507L303.702 252.114L184.88 249.984C183.756 249.332 308.432 161.507 308.432 161.507Z" fill="#919191"/>
<path d="M402.447 221.427L364.186 284.634L433.453 216.043L402.447 221.427Z" fill="#DDDADA"/>
<path d="M239.286 60.9034L393.775 38.635L208.043 163.749L239.286 60.9034Z" fill="#C8C8C8"/>
<path d="M308.611 156.861L394.211 41.2977L210.15 164.549L308.611 156.861Z" fill="#A9A9A9"/>
<path d="M310.819 157.701L305.809 250.556L396.565 42.1768L310.819 157.701Z" fill="#E0E0E0"/>
<path d="M361.34 284.134L398.931 222.575L304.885 254.673L233.351 253.589L361.34 284.134Z" fill="#6C6A6A"/>
<g style="mix-blend-mode:color" opacity="0.2">
<path d="M307.903 251.393L400.807 219.918L399.676 40.8257L307.903 251.393Z" fill="#FF00B8"/>
<path d="M403.207 219.634L432.716 213.94L402.033 44.1447L403.207 219.634Z" fill="#FF00B8"/>
<path d="M161.694 69.6262L204.659 4.75662L389.589 37.2209L161.694 69.6262Z" fill="#FF00B8"/>
<path d="M183.251 238.925L237.193 61.1516L159.836 71.9084L183.251 238.925Z" fill="#FF00B8"/>
<path d="M182.191 248.216L307.708 159.051L207.237 167.051L182.191 248.216Z" fill="#FF00B8"/>
<path d="M308.432 161.507L303.702 252.114L184.88 249.984C183.756 249.332 308.432 161.507 308.432 161.507Z" fill="#FF00B8"/>
<path d="M402.447 221.427L364.186 284.634L433.453 216.043L402.447 221.427Z" fill="#FF00B8"/>
<path d="M239.286 60.9034L393.775 38.635L208.043 163.749L239.286 60.9034Z" fill="#FF00B8"/>
<path d="M308.611 156.861L394.211 41.2977L210.15 164.549L308.611 156.861Z" fill="#FF00B8"/>
<path d="M310.819 157.701L305.809 250.556L396.565 42.1768L310.819 157.701Z" fill="#FF00B8"/>
<path d="M361.34 284.134L398.931 222.575L304.885 254.673L233.351 253.589L361.34 284.134Z" fill="#FF00B8"/>
</g>
<g style="mix-blend-mode:multiply" opacity="0.8">
<path d="M307.903 251.393L400.807 219.918L399.676 40.8257L307.903 251.393Z" fill="#FF00B8"/>
<path d="M403.207 219.634L432.716 213.94L402.033 44.1447L403.207 219.634Z" fill="#FF00B8"/>
<path d="M161.694 69.6262L204.659 4.75662L389.589 37.2209L161.694 69.6262Z" fill="#FF00B8"/>
<path d="M183.251 238.925L237.193 61.1516L159.836 71.9084L183.251 238.925Z" fill="#FF00B8"/>
<path d="M182.191 248.216L307.708 159.051L207.237 167.051L182.191 248.216Z" fill="#FF00B8"/>
<path d="M308.432 161.507L303.702 252.114L184.88 249.984C183.756 249.332 308.432 161.507 308.432 161.507Z" fill="#FF00B8"/>
<path d="M402.447 221.427L364.186 284.634L433.453 216.043L402.447 221.427Z" fill="#FF00B8"/>
<path d="M239.286 60.9034L393.775 38.635L208.043 163.749L239.286 60.9034Z" fill="#FF00B8"/>
<path d="M308.611 156.861L394.211 41.2977L210.15 164.549L308.611 156.861Z" fill="#FF00B8"/>
<path d="M310.819 157.701L305.809 250.556L396.565 42.1768L310.819 157.701Z" fill="#FF00B8"/>
<path d="M361.34 284.134L398.931 222.575L304.885 254.673L233.351 253.589L361.34 284.134Z" fill="#FF00B8"/>
</g>
</g>
<defs>
<filter id="filter0_f_281_1800" x="123.997" y="58.8445" width="71.3094" height="162.012" filterUnits="userSpaceOnUse" color-interpolation-filters="sRGB">
<feFlood flood-opacity="0" result="BackgroundImageFix"/>
<feBlend mode="normal" in="SourceGraphic" in2="BackgroundImageFix" result="shape"/>
<feGaussianBlur stdDeviation="7" result="effect1_foregroundBlur_281_1800"/>
</filter>
<linearGradient id="paint0_linear_281_1800" x1="190.411" y1="91.3613" x2="80.8763" y2="127.454" gradientUnits="userSpaceOnUse">
<stop/>
<stop offset="1" stop-opacity="0"/>
</linearGradient>
<clipPath id="clip0_281_1800">
<rect width="436" height="356" fill="white"/>
</clipPath>
</defs>
</svg>
