<svg width="436" height="356" viewBox="0 0 436 356" fill="none" xmlns="http://www.w3.org/2000/svg">
<g clip-path="url(#clip0_281_1798)">
<path d="M275.945 178.54L159.581 12.6392L53.965 118.255L275.945 178.54Z" fill="#C3C3C3"/>
<path d="M274.543 180.877L107.707 249.106L54.4322 121.994L274.543 180.877Z" fill="#868686"/>
<path d="M276.449 78.4927L163.078 11.5596L276.449 173.445V78.4927Z" fill="#AFAFAF"/>
<path d="M244.539 223.515L273.855 184.859L114.046 249.198L244.539 223.515Z" fill="#737373"/>
<g style="mix-blend-mode:color">
<path d="M275.945 178.54L159.581 12.6392L53.965 118.255L275.945 178.54Z" fill="#9E00FF"/>
<path d="M274.543 180.877L107.707 249.106L54.4322 121.994L274.543 180.877Z" fill="#9E00FF"/>
<path d="M276.449 78.4927L163.078 11.5596L276.449 173.445V78.4927Z" fill="#9E00FF"/>
<path d="M244.539 223.515L273.855 184.859L114.046 249.198L244.539 223.515Z" fill="#9E00FF"/>
</g>
<g style="mix-blend-mode:overlay" filter="url(#filter0_f_281_1798)">
<path d="M151 21.6057L52.2817 119.113L101 227L281 183L151 21.6057Z" fill="#47057A"/>
</g>
<g style="mix-blend-mode:overlay" filter="url(#filter1_f_281_1798)">
<path d="M201 57L54.0986 117.901L112 236L278 175L201 57Z" fill="url(#paint0_linear_281_1798)"/>
</g>
</g>
<defs>
<filter id="filter0_f_281_1798" x="18.2817" y="-12.3943" width="296.718" height="273.394" filterUnits="userSpaceOnUse" color-interpolation-filters="sRGB">
<feFlood flood-opacity="0" result="BackgroundImageFix"/>
<feBlend mode="normal" in="SourceGraphic" in2="BackgroundImageFix" result="shape"/>
<feGaussianBlur stdDeviation="17" result="effect1_foregroundBlur_281_1798"/>
</filter>
<filter id="filter1_f_281_1798" x="-9.90141" y="-7" width="351.901" height="307" filterUnits="userSpaceOnUse" color-interpolation-filters="sRGB">
<feFlood flood-opacity="0" result="BackgroundImageFix"/>
<feBlend mode="normal" in="SourceGraphic" in2="BackgroundImageFix" result="shape"/>
<feGaussianBlur stdDeviation="32" result="effect1_foregroundBlur_281_1798"/>
</filter>
<linearGradient id="paint0_linear_281_1798" x1="38.3009" y1="116.136" x2="192.301" y2="170.136" gradientUnits="userSpaceOnUse">
<stop stop-color="#1F0434"/>
<stop offset="1" stop-color="#481038"/>
</linearGradient>
<clipPath id="clip0_281_1798">
<rect width="436" height="356" fill="white"/>
</clipPath>
</defs>
</svg>
