<svg width="378" height="145" viewBox="0 0 378 145" fill="none" xmlns="http://www.w3.org/2000/svg">
<g clip-path="url(#clip0_388_5505)">
<path d="M289.464 58.7957L307.432 42.4389L322.323 114.182L289.464 58.7957Z" fill="#9E9E9E"/>
<path d="M288.542 59.4713L260.211 110.762L321.848 115.376L288.542 59.4713Z" fill="#6D6D6D"/>
<path d="M259.825 111.88L252.371 144.261L320.061 116.449L259.825 111.88Z" fill="#434343"/>
<path d="M162.158 52.794L159.564 77.1157L251.594 143.538L258.865 111.417L162.158 52.794Z" fill="#5A5A5A"/>
<path d="M162.944 52.432L182.927 18.0171L287.557 59.1271L259.211 110.172L162.944 52.432Z" fill="#A0A0A0"/>
<path d="M183.364 17.2616L198.132 3.90247L306.793 41.7468L288.454 58.2422L183.364 17.2616Z" fill="#BEBEBE"/>
<path d="M158.947 75.3943L149.502 27.1988L161.335 53.0065L158.947 75.3943Z" fill="#414040"/>
<path d="M149.8 26.0715L182.046 17.9232L161.965 52.4167L149.8 26.0715Z" fill="#A7A7A7"/>
<path d="M182.297 17.237L197.175 3.93794L151.351 24.9002L182.297 17.237Z" fill="#C1C1C1"/>
<g style="mix-blend-mode:color">
<path d="M289.464 58.7957L307.432 42.4389L322.323 114.182L289.464 58.7957Z" fill="#D83EFF"/>
<path d="M288.542 59.4713L260.211 110.762L321.848 115.376L288.542 59.4713Z" fill="#D83EFF"/>
<path d="M259.825 111.88L252.371 144.261L320.061 116.449L259.825 111.88Z" fill="#D83EFF"/>
<path d="M162.158 52.794L159.564 77.1157L251.594 143.538L258.865 111.417L162.158 52.794Z" fill="#D83EFF"/>
<path d="M162.944 52.432L182.927 18.0171L287.557 59.1271L259.211 110.172L162.944 52.432Z" fill="#D83EFF"/>
<path d="M183.364 17.2616L198.132 3.90247L306.793 41.7468L288.454 58.2422L183.364 17.2616Z" fill="#D83EFF"/>
<path d="M158.947 75.3943L149.502 27.1988L161.335 53.0065L158.947 75.3943Z" fill="#D83EFF"/>
<path d="M149.8 26.0715L182.046 17.9232L161.965 52.4167L149.8 26.0715Z" fill="#D83EFF"/>
<path d="M182.297 17.237L197.175 3.93794L151.351 24.9002L182.297 17.237Z" fill="#D83EFF"/>
</g>
<g style="mix-blend-mode:overlay" filter="url(#filter0_f_388_5505)">
<path d="M150.19 26.6605L158.602 75.6028L253.163 144.9L319.094 115.274L320.354 78.7253L150.19 26.6605Z" fill="#47057A"/>
</g>
</g>
<defs>
<filter id="filter0_f_388_5505" x="131.59" y="8.06067" width="207.364" height="155.439" filterUnits="userSpaceOnUse" color-interpolation-filters="sRGB">
<feFlood flood-opacity="0" result="BackgroundImageFix"/>
<feBlend mode="normal" in="SourceGraphic" in2="BackgroundImageFix" result="shape"/>
<feGaussianBlur stdDeviation="9.29993" result="effect1_foregroundBlur_388_5505"/>
</filter>
<clipPath id="clip0_388_5505">
<rect width="378" height="145" fill="white"/>
</clipPath>
</defs>
</svg>
